<svg xmlns="http://www.w3.org/2000/svg" viewBox="0 0 960 600" role="img" aria-label="Placeholder preview of the Cafeteria America demo website">
  <rect width="960" height="600" fill="#ECE5D8"/>
  <rect x="30" y="30" width="900" height="540" rx="14" fill="#FFFDF9" stroke="#DED5C2" stroke-width="1.5"/>

  <rect x="30" y="30" width="900" height="46" rx="14" fill="#8C3B2E"/>
  <circle cx="58" cy="53" r="5" fill="#F6F2EA" opacity="0.5"/>
  <circle cx="76" cy="53" r="5" fill="#F6F2EA" opacity="0.5"/>
  <circle cx="94" cy="53" r="5" fill="#F6F2EA" opacity="0.5"/>
  <rect x="430" y="42" width="200" height="22" rx="11" fill="#F6F2EA" opacity="0.12"/>

  <rect x="66" y="104" width="90" height="16" rx="4" fill="#8C3B2E"/>
  <rect x="700" y="108" width="50" height="8" rx="4" fill="#C9C2B2"/>
  <rect x="766" y="108" width="50" height="8" rx="4" fill="#C9C2B2"/>
  <rect x="832" y="108" width="60" height="8" rx="4" fill="#C9C2B2"/>

  <rect x="66" y="168" width="260" height="20" rx="4" fill="#8C3B2E"/>
  <rect x="66" y="198" width="230" height="10" rx="5" fill="#C9C2B2"/>
  <rect x="66" y="216" width="180" height="10" rx="5" fill="#C9C2B2"/>
  <rect x="66" y="250" width="150" height="38" rx="19" fill="#8C3B2E"/>

  <circle cx="700" cy="255" r="120" fill="#F1E1DC"/>
  <circle cx="700" cy="255" r="88" fill="#FFFDF9" stroke="#8C3B2E" stroke-width="2"/>
  <circle cx="700" cy="255" r="38" fill="#D9A87A"/>
  <circle cx="684" cy="244" r="6.5" fill="#8C3B2E"/>
  <circle cx="714" cy="250" r="5.5" fill="#8C3B2E"/>
  <circle cx="696" cy="270" r="6" fill="#8C3B2E"/>

  <g>
    <circle cx="96" cy="404" r="20" fill="#8C3B2E"/>
    <rect x="132" y="396" width="150" height="10" rx="5" fill="#8C3B2E"/>
    <rect x="132" y="414" width="110" height="8" rx="4" fill="#C9C2B2"/>
  </g>
  <g>
    <circle cx="416" cy="404" r="20" fill="#8C3B2E"/>
    <rect x="452" y="396" width="150" height="10" rx="5" fill="#8C3B2E"/>
    <rect x="452" y="414" width="110" height="8" rx="4" fill="#C9C2B2"/>
  </g>
  <g>
    <circle cx="736" cy="404" r="20" fill="#8C3B2E"/>
    <rect x="772" y="396" width="110" height="10" rx="5" fill="#8C3B2E"/>
    <rect x="772" y="414" width="90" height="8" rx="4" fill="#C9C2B2"/>
  </g>

  <line x1="66" y1="500" x2="894" y2="500" stroke="#DED5C2" stroke-width="1.5"/>
  <rect x="66" y="524" width="130" height="8" rx="4" fill="#C9C2B2"/>
  <rect x="760" y="524" width="134" height="8" rx="4" fill="#C9C2B2"/>
</svg>
